<?xml version="1.0" encoding="UTF-8"?>
<svg version="1.1" xmlns="http://www.w3.org/2000/svg" width="1024" height="1024">
<path d="M0 0 C337.92 0 675.84 0 1024 0 C1024 337.92 1024 675.84 1024 1024 C686.08 1024 348.16 1024 0 1024 C0 686.08 0 348.16 0 0 Z " fill="#E5EAEE" transform="translate(0,0)"/>
<path d="M0 0 C1.75233702 -0.0027486 3.50467237 -0.00680747 5.25700372 -0.01204365 C10.01784865 -0.02252226 14.77850285 -0.01457271 19.53933918 -0.00329316 C24.69482317 0.00561611 29.85028398 -0.00291392 35.00576782 -0.00915527 C45.08360297 -0.01860619 55.16136612 -0.01207612 65.23919589 0.00010767 C76.99152227 0.01378244 88.74383182 0.012085 100.49616414 0.00997434 C121.47397419 0.00678989 142.45175021 0.01842106 163.42955017 0.03804016 C183.75540707 0.05704437 204.08122409 0.06412637 224.40708923 0.05854797 C246.57664007 0.05248152 268.7461734 0.05268294 290.91572279 0.06403381 C293.28246303 0.06524101 295.64920328 0.066447 298.01594353 0.06765175 C299.1802244 0.06825529 300.34450526 0.06885883 301.54406737 0.06948065 C309.72365581 0.07334952 317.90323771 0.0729702 326.08282661 0.0710659 C336.05884586 0.06893736 346.0348303 0.07421783 356.01083977 0.08867946 C361.09448025 0.09589142 366.17807022 0.10002796 371.26171494 0.0954361 C375.92560869 0.09132604 380.58939865 0.09661956 385.25327676 0.10906217 C386.93001286 0.11196284 388.60675893 0.11159772 390.28349233 0.1074191 C404.96823222 0.0741782 419.82669085 0.63895194 433.85313416 5.3742218 C434.87745544 5.7164679 434.87745544 5.7164679 435.92247009 6.06562805 C474.76943173 19.20722663 504.49414105 44.6561783 523.08677673 81.31977844 C528.26988411 92.03073428 531.87673782 102.88129101 534.85313416 114.3742218 C535.04462072 115.09126246 535.23610728 115.80830312 535.43339646 116.54707229 C540.00809571 134.26612011 539.42146542 152.33996065 539.36137378 170.4901849 C539.35014675 175.22032059 539.36224486 179.95040937 539.37121582 184.68054199 C539.385071 193.91877889 539.37764973 203.15687808 539.36254024 212.39510829 C539.34558562 223.17635943 539.34890224 233.95757717 539.35263432 244.73883753 C539.35849869 263.98785068 539.34439701 283.23679821 539.31968689 302.48579407 C539.29576702 321.12156127 539.2886858 339.75724083 539.29917908 358.39302063 C539.31061361 378.7365862 539.31248735 399.08011133 539.29808098 419.42367643 C539.2965553 421.5969187 539.29503495 423.77016097 539.29351997 425.94340324 C539.29276216 427.01239726 539.29200435 428.08139128 539.29122357 429.18277906 C539.28650057 436.68021928 539.288318 444.17764132 539.29258537 451.67508125 C539.29753518 460.82348459 539.29142513 469.97180542 539.27169108 479.12018997 C539.26188593 483.77894115 539.25663978 488.43756727 539.26458359 493.09632492 C539.33731532 540.84662446 531.31897115 585.77629527 496.85313416 621.3742218 C495.91727478 622.43769836 495.91727478 622.43769836 494.96250916 623.5226593 C475.08482649 645.20028961 440.84113304 660.22214209 411.595204 661.65080321 C406.85960118 661.79124039 402.12511569 661.77018401 397.38800049 661.7484436 C395.56456766 661.75118977 393.74113642 661.75524659 391.91770905 661.76048726 C386.9466094 661.77100118 381.97569148 661.76299282 377.00459993 661.75173676 C371.62829807 661.7428504 366.25201885 661.75135095 360.87571716 661.75759888 C350.35999149 661.76706258 339.84433469 661.76050864 329.32861415 661.74833594 C317.07448023 661.73468172 304.82036252 661.73635677 292.56622293 661.73846927 C270.69919942 661.74165551 248.83220854 661.73001164 226.9651947 661.71040344 C205.76010647 661.69139387 184.55505647 661.68431819 163.34996033 661.68989563 C140.23852559 661.69595653 117.12710764 661.69577117 94.01567429 661.6844098 C91.55039895 661.68320255 89.0851236 661.68199656 86.61984825 661.68079185 C85.40698898 661.68018832 84.19412972 661.67958478 82.94451714 661.67896295 C74.40794879 661.67508785 65.87138669 661.67547582 57.33481789 661.6773777 C46.93038924 661.67950207 36.52599403 661.67425704 26.1215748 661.65976415 C20.81579594 661.65253231 15.51006571 661.64843285 10.20428276 661.65300751 C5.34315388 661.65709679 0.48212523 661.65188193 -4.37898848 661.63938143 C-6.13311384 661.63646417 -7.88724871 661.63687077 -9.64137157 661.64102451 C-18.98393584 661.66113123 -27.96791054 661.34557819 -37.14686584 659.3742218 C-39.07272522 658.96623352 -39.07272522 658.96623352 -41.03749084 658.55000305 C-77.02231476 649.30274016 -107.34906653 625.00835308 -126.51625061 593.39033508 C-131.64928362 584.66305007 -135.81570221 575.9358952 -139.14686584 566.3742218 C-139.80428772 564.60691711 -139.80428772 564.60691711 -140.47499084 562.8039093 C-148.72867382 538.98755902 -148.73642666 514.22719831 -148.64044642 489.35427451 C-148.62708152 484.72580186 -148.63723424 480.09736587 -148.64421082 475.46888733 C-148.65420889 466.44054676 -148.64312186 457.41235464 -148.62451021 448.38403256 C-148.60357383 437.84299086 -148.60388699 427.30197986 -148.60485537 416.76092128 C-148.60585294 397.94172352 -148.58763141 379.12259413 -148.55848694 360.30342102 C-148.53029546 342.08986669 -148.51614677 323.87637247 -148.51747131 305.66279602 C-148.51755123 304.53990258 -148.51763114 303.41700915 -148.51771347 302.26008864 C-148.51779418 301.13903099 -148.51787489 300.01797334 -148.51795805 298.86294425 C-148.51934136 278.05028305 -148.50754008 257.2376471 -148.48965161 236.42499412 C-148.48364732 229.09631813 -148.48149592 221.76764683 -148.48058701 214.43896866 C-148.47921585 205.49930753 -148.47019089 196.55968904 -148.45192139 187.62004597 C-148.44275585 183.06862394 -148.43656808 178.517256 -148.4391098 173.96582413 C-148.46066196 123.65715548 -140.8957387 82.9440555 -106.14686584 44.3742218 C-105.24001038 43.35715149 -105.24001038 43.35715149 -104.31483459 42.3195343 C-77.26882041 13.69868891 -38.64168952 -0.18613283 0 0 Z " fill="#080809" transform="translate(320.14686584472656,199.6257781982422)"/>
<path d="M0 0 C0.86763474 -0.00571014 1.73526947 -0.01142029 2.62919617 -0.01730347 C4.0528801 -0.01898026 4.0528801 -0.01898026 5.50532532 -0.02069092 C6.50728439 -0.02565582 7.50924347 -0.03062073 8.54156494 -0.03573608 C11.86323225 -0.05036521 15.18485176 -0.05716177 18.50654602 -0.06268311 C20.81479901 -0.06843492 23.12305198 -0.07419265 25.43130493 -0.07995605 C30.27596764 -0.09046885 35.12061374 -0.09630937 39.96528625 -0.09979248 C46.16477533 -0.10527094 52.36404409 -0.12928413 58.56346416 -0.15776443 C63.33421462 -0.17641653 68.10491235 -0.18159784 72.87569618 -0.18312836 C75.16057855 -0.18615072 77.44546009 -0.19416517 79.73030663 -0.20731354 C82.93282532 -0.22442375 86.13481034 -0.22248117 89.33735657 -0.21600342 C90.27635803 -0.2252182 91.2153595 -0.23443298 92.18281555 -0.243927 C98.67298571 -0.20293419 104.51674215 0.56669835 109.76826477 4.75372314 C110.2142804 5.31446533 110.66029602 5.87520752 111.11982727 6.45294189 C111.81205383 7.28245361 111.81205383 7.28245361 112.51826477 8.12872314 C115.91995956 13.70793593 116.04200538 19.16639688 116.03535461 25.49127197 C116.04207184 26.41403427 116.04878906 27.33679657 116.05570984 28.28752136 C116.07465786 31.32839389 116.07861249 34.36904531 116.08076477 37.40997314 C116.08719509 39.5321817 116.09392362 41.65438936 116.10093689 43.77659607 C116.11290179 48.22252456 116.11661853 52.6683754 116.11543274 57.11431885 C116.11522964 62.79695073 116.14252642 68.47908201 116.17697716 74.16159534 C116.19927105 78.54465499 116.2032695 82.92759466 116.20221329 87.31070518 C116.20456569 89.40497245 116.21336879 91.4992432 116.22887802 93.59345436 C116.24858738 96.52979696 116.24268029 99.46506643 116.23066711 102.40142822 C116.24190613 103.25731537 116.25314514 104.11320251 116.26472473 104.99502563 C116.1971821 111.5283761 114.73688827 117.67451584 110.36830711 122.73496723 C99.18616026 132.75668355 82.15312341 128.14044189 68.74482727 128.14044189 C68.74482727 169.39044189 68.74482727 210.64044189 68.74482727 253.14044189 C95.80482727 253.14044189 122.86482727 253.14044189 150.74482727 253.14044189 C150.74482727 246.21044189 150.74482727 239.28044189 150.74482727 232.14044189 C155.86496086 223.18020812 155.86496086 223.18020812 161.74482727 221.14044189 C164.54963484 220.67001022 167.2470613 220.66950626 170.08467102 220.74981689 C171.23510643 220.75830658 171.23510643 220.75830658 172.40878296 220.76696777 C174.83396041 220.78917695 177.25760421 220.83933927 179.68232727 220.89044189 C181.33660265 220.91052709 182.99090143 220.92877431 184.6452179 220.94512939 C188.67947245 220.98557305 192.71045437 221.06388026 196.74482727 221.14044189 C196.74482727 213.55044189 196.74482727 205.96044189 196.74482727 198.14044189 C162.42482727 198.14044189 128.10482727 198.14044189 92.74482727 198.14044189 C92.74482727 186.92044189 92.74482727 175.70044189 92.74482727 164.14044189 C137.95482727 164.14044189 183.16482727 164.14044189 229.74482727 164.14044189 C229.74482727 182.95044189 229.74482727 201.76044189 229.74482727 221.14044189 C237.66482727 221.14044189 245.58482727 221.14044189 253.74482727 221.14044189 C259.72827867 224.1321676 262.75647935 226.16374605 265.74482727 232.14044189 C265.85331879 234.64121611 265.90213712 237.1145682 265.90596008 239.61602783 C265.91092499 240.38696777 265.91588989 241.15790771 265.92100525 241.95220947 C265.93564247 244.50975429 265.94243236 247.06723702 265.94795227 249.62481689 C265.95370358 251.40120445 265.95946132 253.17759198 265.96522522 254.95397949 C265.97574043 258.68312876 265.98157931 262.41225644 265.98506165 266.14141846 C265.99053959 270.9141255 266.01455037 275.68654627 266.0430336 280.45916367 C266.06168378 284.13094914 266.0668669 287.8026661 266.06839752 291.47449493 C266.07142052 293.23351858 266.07943713 294.99254112 266.0925827 296.75151825 C266.1096889 299.21699069 266.10775169 301.68176968 266.10127258 304.14727783 C266.11048737 304.87062317 266.11970215 305.59396851 266.12919617 306.3392334 C266.09086037 311.00968457 265.19057737 314.16828964 262.74482727 318.14044189 C253.1689399 327.21233519 243.78397139 324.53004432 229.74482727 325.14044189 C229.74482727 357.15044189 229.74482727 389.16044189 229.74482727 422.14044189 C244.59482727 422.14044189 259.44482727 422.14044189 274.74482727 422.14044189 C282.64071351 426.65237689 282.64071351 426.65237689 284.61982727 429.70294189 C285.00912415 430.28173096 285.39842102 430.86052002 285.79951477 431.45684814 C287.50670354 434.49733724 287.87300201 437.05437751 287.89199829 440.46481323 C287.90273125 441.78934006 287.90273125 441.78934006 287.91368103 443.140625 C287.91636993 444.10687805 287.91905884 445.0731311 287.92182922 446.06866455 C287.92840042 447.08852448 287.93497162 448.1083844 287.94174194 449.15914917 C287.9614832 452.54093498 287.97314072 455.92267632 287.98310852 459.30450439 C287.98718405 460.45997143 287.99125957 461.61543846 287.9954586 462.80591965 C288.01632494 468.92409843 288.03062307 475.04225475 288.03999329 481.16046143 C288.05104626 487.4720153 288.08543216 493.78321551 288.12516499 500.09464455 C288.15134744 504.95379275 288.1596867 509.81285701 288.16327477 514.67206955 C288.1681381 516.99800372 288.17974479 519.32393421 288.19831276 521.64979935 C288.22273326 524.91209918 288.2217332 528.17348825 288.21479797 531.43585205 C288.23401306 532.86701355 288.23401306 532.86701355 288.25361633 534.3270874 C288.1968311 541.68660141 286.66467392 548.05838154 281.49482727 553.51544189 C274.27421549 557.78216704 268.20132974 558.57980143 259.97358704 558.52862549 C258.92373627 558.53388245 257.8738855 558.5391394 256.79222107 558.54455566 C253.34007149 558.55770215 249.88838737 558.54903562 246.43623352 558.53887939 C244.02542025 558.54090181 241.61460757 558.54381465 239.20379639 558.5475769 C234.15776225 558.55199316 229.11188773 558.54559209 224.06587219 558.53155518 C217.61212469 558.51447316 211.15875178 558.52430303 204.70501804 558.54227257 C199.72833457 558.553137 194.75173922 558.54965166 189.77505302 558.54188919 C187.39611199 558.53989407 185.01716284 558.54232217 182.63823128 558.54932785 C179.3070941 558.55698492 175.97655493 558.5452776 172.64546204 558.52862549 C171.67115738 558.53469818 170.69685272 558.54077087 169.69302368 558.54702759 C162.74829384 558.48302788 156.08761555 557.65729918 150.40498352 553.37872314 C149.61414368 552.42546143 149.61414368 552.42546143 148.80732727 551.45294189 C148.26205383 550.83032471 147.7167804 550.20770752 147.15498352 549.56622314 C137.82635361 533.5189124 143.74482727 489.69935528 143.74482727 486.14044189 C79.39482727 486.14044189 15.04482727 486.14044189 -51.25517273 486.14044189 C-51.25517273 503.30044189 -51.25517273 520.46044189 -51.25517273 538.14044189 C-54.94394516 551.66594082 -54.94394516 551.66594082 -61.09886837 555.1986618 C-67.40784358 558.29666118 -72.83922977 558.71221307 -79.79838562 558.65802002 C-81.47820274 558.66853394 -81.47820274 558.66853394 -83.19195557 558.67926025 C-86.87083689 558.69677634 -90.54894068 558.68524019 -94.22782898 558.67169189 C-96.79655097 558.67438843 -99.36527197 558.6782722 -101.93399048 558.68328857 C-107.30784306 558.68917486 -112.68140656 558.68103293 -118.05522156 558.66192627 C-124.25101198 558.64015023 -130.44627593 558.6472223 -136.64205366 558.66923189 C-142.62593874 558.68963047 -148.60956808 558.68739649 -154.59348869 558.67570496 C-157.12955741 558.673042 -159.66563963 558.6762922 -162.20169258 558.68562317 C-165.74860579 558.69581149 -169.29451565 558.68025435 -172.84135437 558.65802002 C-174.40403046 558.67016541 -174.40403046 558.67016541 -175.99827576 558.68255615 C-182.9116167 558.60249968 -188.52365835 557.51645688 -193.77650547 552.76404572 C-199.44829504 546.48498012 -199.5532741 539.85318632 -199.54570007 531.85577393 C-199.55577591 530.32291748 -199.55577591 530.32291748 -199.5660553 528.75909424 C-199.5850169 525.38876452 -199.58895849 522.0186341 -199.59111023 518.64825439 C-199.59753903 516.29944782 -199.60426745 513.95064205 -199.61128235 511.60183716 C-199.62325024 506.68093001 -199.62696363 501.76009304 -199.6257782 496.83917236 C-199.62557495 490.54215273 -199.65288588 484.2455841 -199.68732262 477.94867134 C-199.7095885 473.09813378 -199.71361584 468.24770486 -199.71255875 463.39712143 C-199.71491482 461.07595133 -199.72373867 458.75477824 -199.73922348 456.4336586 C-199.75887796 453.18341959 -199.75304701 449.93415452 -199.74101257 446.68389893 C-199.75225159 445.73090912 -199.7634906 444.77791931 -199.77507019 443.79605103 C-199.71253446 437.13002774 -198.48597443 431.53992108 -193.7724514 426.58030891 C-189.99266978 423.28481782 -186.99830298 422.01208415 -182.05912781 422.0269165 C-180.78059937 422.02709778 -180.78059937 422.02709778 -179.47624207 422.02728271 C-178.5847345 422.03239868 -177.69322693 422.03751465 -176.77470398 422.04278564 C-175.54076904 422.04429626 -175.54076904 422.04429626 -174.28190613 422.0458374 C-171.2104808 422.05106741 -168.13907536 422.06502868 -165.06767273 422.07794189 C-158.19954773 422.09856689 -151.33142273 422.11919189 -144.25517273 422.14044189 C-144.25517273 399.37044189 -144.25517273 376.60044189 -144.25517273 353.14044189 C-92.77517273 353.14044189 -41.29517273 353.14044189 11.74482727 353.14044189 C11.74482727 364.36044189 11.74482727 375.58044189 11.74482727 387.14044189 C-29.17517273 387.14044189 -70.09517273 387.14044189 -112.25517273 387.14044189 C-112.25517273 398.69044189 -112.25517273 410.24044189 -112.25517273 422.14044189 C-108.84818054 422.10563721 -105.44118835 422.07083252 -101.93095398 422.03497314 C-98.62798399 422.01157095 -95.32502326 421.99335809 -92.02201843 421.97564697 C-89.72803101 421.96056882 -87.43407236 421.9401032 -85.1401825 421.91412354 C-81.84120068 421.87769832 -78.54260033 421.86070558 -75.24345398 421.84747314 C-74.219319 421.83198929 -73.19518402 421.81650543 -72.14001465 421.80055237 C-65.85365296 421.79906953 -62.13149484 422.34048231 -57.48954773 426.85919189 C-56.99970398 427.44700439 -56.50986023 428.03481689 -56.00517273 428.64044189 C-55.50501648 429.22825439 -55.00486023 429.81606689 -54.48954773 430.42169189 C-50.02191556 436.64244555 -51.68906365 444.76429628 -51.25517273 452.14044189 C-22.54517273 452.14044189 6.16482727 452.14044189 35.74482727 452.14044189 C35.74482727 345.22044189 35.74482727 238.30044189 35.74482727 128.14044189 C22.54482727 128.14044189 9.34482727 128.14044189 -4.25517273 128.14044189 C-11.40884273 124.56360689 -14.93636493 121.99969104 -17.64276505 114.41339111 C-18.70509981 110.47053893 -18.67215754 106.60809397 -18.64335632 102.54669189 C-18.65124176 101.15970093 -18.65124176 101.15970093 -18.6592865 99.74468994 C-18.67241366 96.70976513 -18.66377421 93.67537138 -18.65361023 90.64044189 C-18.65563305 88.51869609 -18.65854623 86.39695096 -18.66230774 84.27520752 C-18.66672124 79.83698888 -18.66033135 75.39895186 -18.64628601 70.96075439 C-18.62919487 65.28486675 -18.63904126 59.60940476 -18.6570034 53.93353271 C-18.66786751 49.55479756 -18.66438282 45.17616256 -18.65662003 40.79742432 C-18.65462529 38.70513864 -18.65705166 36.61284374 -18.66405869 34.52056885 C-18.67171638 31.59153309 -18.66000844 28.6631773 -18.64335632 25.73419189 C-18.64942902 24.87785156 -18.65550171 24.02151123 -18.66175842 23.13922119 C-18.59427918 16.70041575 -17.6276011 10.92900185 -13.31767273 5.86309814 C-12.63704773 5.31524658 -11.95642273 4.76739502 -11.25517273 4.20294189 C-10.57454773 3.63704346 -9.89392273 3.07114502 -9.19267273 2.48809814 C-6.15344207 0.37411714 -3.597917 0.01419864 0 0 Z " fill="#EFF4F9" transform="translate(474.2551727294922,246.85955810546875)"/>
<path d="M0 0 C51.48 0 102.96 0 156 0 C156 11.22 156 22.44 156 34 C115.08 34 74.16 34 32 34 C32 45.55 32 57.1 32 69 C35.40699219 68.96519531 38.81398438 68.93039062 42.32421875 68.89453125 C45.62718874 68.87112905 48.93014947 68.85291619 52.2331543 68.83520508 C54.52714172 68.82012692 56.82110037 68.7996613 59.11499023 68.77368164 C62.41397205 68.73725642 65.7125724 68.72026369 69.01171875 68.70703125 C70.03585373 68.69154739 71.05998871 68.67606354 72.11515808 68.66011047 C78.40151976 68.65862763 82.12367789 69.20004042 86.765625 73.71875 C87.25546875 74.3065625 87.7453125 74.894375 88.25 75.5 C88.75015625 76.0878125 89.2503125 76.675625 89.765625 77.28125 C91.89735166 80.249477 92.12704465 82.88021179 92.14044189 86.41375732 C92.14615204 87.31649384 92.15186218 88.21923035 92.15774536 89.14932251 C92.15942215 90.63146744 92.15942215 90.63146744 92.16113281 92.14355469 C92.16609772 93.18613434 92.17106262 94.22871399 92.17617798 95.30288696 C92.19080774 98.75922298 92.19760336 102.21551308 92.203125 105.671875 C92.20887625 108.07220461 92.21463399 110.47253419 92.22039795 112.87286377 C92.23091058 117.91003636 92.23675138 122.94719298 92.24023438 127.984375 C92.24571637 134.4350634 92.26973724 140.88554042 92.29820633 147.33616257 C92.31684254 152.296454 92.32203887 157.25669465 92.32357025 162.21701813 C92.32659561 164.5948324 92.33462016 166.9726458 92.34775543 169.35042572 C92.36483428 172.68006901 92.36293079 176.0091977 92.35644531 179.33886719 C92.3656601 180.31886688 92.37487488 181.29886658 92.3843689 182.30856323 C92.34145926 189.35094172 91.29655967 194.11289641 86.8125 199.75 C79.96012438 205.2319005 72.99694462 205.44041018 64.5703125 205.40405273 C63.45058044 205.41091599 62.33084839 205.41777924 61.17718506 205.42485046 C57.4929927 205.44308248 53.80922759 205.43928631 50.125 205.43359375 C47.55484886 205.43815684 44.98469894 205.44346279 42.41455078 205.44947815 C37.03477424 205.45840191 31.65516052 205.45622913 26.27539062 205.44604492 C20.07225326 205.43456094 13.86954811 205.44865165 7.66646767 205.4754414 C1.67779859 205.5003286 -4.31064921 205.50276676 -10.29937744 205.49632454 C-12.83824381 205.49617138 -15.37711852 205.50221149 -17.91595459 205.51461601 C-21.46773264 205.52952711 -25.01856367 205.51884705 -28.5703125 205.50170898 C-30.13534515 205.51621094 -30.13534515 205.51621094 -31.73199463 205.53100586 C-38.65368143 205.46122589 -44.2622885 204.38191181 -49.52127075 199.62354183 C-55.19328959 193.34476968 -55.29810123 186.7125944 -55.29052734 178.71533203 C-55.29724457 177.69342773 -55.30396179 176.67152344 -55.31088257 175.61865234 C-55.32984417 172.24832262 -55.33378576 168.87819221 -55.3359375 165.5078125 C-55.3423663 163.15900593 -55.34909472 160.81020016 -55.35610962 158.46139526 C-55.36807751 153.54048811 -55.3717909 148.61965114 -55.37060547 143.69873047 C-55.37040222 137.40171083 -55.39771315 131.1051422 -55.43214989 124.80822945 C-55.45441578 119.95769189 -55.45844311 115.10726296 -55.45738602 110.25667953 C-55.45974209 107.93550944 -55.46856594 105.61433635 -55.48405075 103.29321671 C-55.50370523 100.04297769 -55.49787428 96.79371262 -55.48583984 93.54345703 C-55.49707886 92.59046722 -55.50831787 91.63747742 -55.51989746 90.65560913 C-55.45736173 83.98958584 -54.2308017 78.39947918 -49.51727867 73.43986702 C-45.73749705 70.14437592 -42.74313025 68.87164225 -37.80395508 68.88647461 C-36.52542664 68.88665588 -36.52542664 68.88665588 -35.22106934 68.88684082 C-34.32956177 68.89195679 -33.4380542 68.89707275 -32.51953125 68.90234375 C-31.28559631 68.90385437 -31.28559631 68.90385437 -30.0267334 68.90539551 C-26.95530808 68.91062551 -23.88390263 68.92458678 -20.8125 68.9375 C-13.944375 68.958125 -7.07625 68.97875 0 69 C0 46.23 0 23.46 0 0 Z " fill="#FBFDFD" transform="translate(330,600)"/>
<path d="M0 0 C1.47825508 -0.01073296 1.47825508 -0.01073296 2.9863739 -0.02168274 C4.07157318 -0.02437164 5.15677246 -0.02706055 6.27485657 -0.02983093 C7.98481056 -0.03968773 7.98481056 -0.03968773 9.72930908 -0.04974365 C13.51573242 -0.06951328 17.30211602 -0.081148 21.08857727 -0.09111023 C23.025484 -0.09722352 23.025484 -0.09722352 25.00152016 -0.10346031 C31.13164578 -0.12218299 37.26175142 -0.1367443 43.39189976 -0.14507228 C50.46168456 -0.15483574 57.53115552 -0.18112986 64.60082978 -0.22157317 C70.72827361 -0.2554194 76.85558594 -0.26722133 82.98311806 -0.27127647 C85.58702025 -0.27615054 88.1909189 -0.28778768 90.79475975 -0.30631447 C94.44072335 -0.33064155 98.08586803 -0.32975191 101.73188782 -0.32279968 C102.80696594 -0.33560974 103.88204407 -0.3484198 104.98970032 -0.36161804 C111.3325233 -0.31755713 115.14957411 0.40601407 120.32685852 4.14717102 C122.06904602 5.96357727 122.06904602 5.96357727 123.20185852 7.70967102 C123.5911554 8.28846008 123.98045227 8.86724915 124.38154602 9.46357727 C126.08873479 12.50406636 126.45503326 15.06110663 126.47402954 18.47154236 C126.4847625 19.79606918 126.4847625 19.79606918 126.49571228 21.14735413 C126.49840118 22.11360718 126.50109009 23.07986023 126.50386047 24.07539368 C126.51043167 25.0952536 126.51700287 26.11511353 126.52377319 27.1658783 C126.54351445 30.54766411 126.55517197 33.92940544 126.56513977 37.31123352 C126.5692153 38.46670055 126.57329082 39.62216759 126.57748985 40.81264877 C126.59835619 46.93082755 126.61265432 53.04898388 126.62202454 59.16719055 C126.63307751 65.47874443 126.66746341 71.78994464 126.70719624 78.10137367 C126.73337869 82.96052188 126.74171795 87.81958613 126.74530602 92.67879868 C126.75016935 95.00473285 126.76177604 97.33066333 126.78034401 99.65652847 C126.80476451 102.91882831 126.80376445 106.18021738 126.79682922 109.44258118 C126.81604431 110.87374268 126.81604431 110.87374268 126.83564758 112.33381653 C126.77886235 119.69333054 125.24670517 126.06511066 120.07685852 131.52217102 C112.85624674 135.78889616 106.78336099 136.58653056 98.55561829 136.53535461 C96.98084213 136.54324005 96.98084213 136.54324005 95.37425232 136.55128479 C91.92210274 136.56443127 88.47041862 136.55576474 85.01826477 136.54560852 C82.6074515 136.54763094 80.19663882 136.55054377 77.78582764 136.55430603 C72.7397935 136.55872228 67.69391898 136.55232122 62.64790344 136.5382843 C56.19415594 136.52120229 49.74078303 136.53103215 43.28704929 136.54900169 C38.31036582 136.55986613 33.33377047 136.55638078 28.35708427 136.54861832 C25.97814324 136.5466232 23.59919409 136.5490513 21.22026253 136.55605698 C17.88912535 136.56371404 14.55858618 136.55200673 11.22749329 136.53535461 C10.25318863 136.54142731 9.27888397 136.5475 8.27505493 136.55375671 C1.30709829 136.48954296 -5.49448194 135.74028801 -11.04814148 131.20967102 C-11.58439148 130.52904602 -12.12064148 129.84842102 -12.67314148 129.14717102 C-13.23001648 128.46654602 -13.78689148 127.78592102 -14.36064148 127.08467102 C-16.47514815 123.96325641 -16.7998355 121.35482932 -16.81358337 117.6887207 C-16.81929352 116.77612488 -16.82500366 115.86352905 -16.83088684 114.92327881 C-16.83256363 113.42475121 -16.83256363 113.42475121 -16.83427429 111.89595032 C-16.8392392 110.8420108 -16.8442041 109.78807129 -16.84931946 108.70219421 C-16.86394842 105.20858614 -16.87074434 101.71502347 -16.87626648 98.22138977 C-16.88201734 95.79624429 -16.88777508 93.37109882 -16.89353943 90.94595337 C-16.90405151 85.85750618 -16.90989282 80.76907481 -16.91337585 75.68061829 C-16.91886089 69.16033026 -16.94288848 62.64025103 -16.97134781 56.1200285 C-16.98997116 51.10916534 -16.99517964 46.0983525 -16.99671173 41.08745766 C-16.99973947 38.68369721 -17.00777206 36.27993768 -17.02089691 33.87621117 C-17.03795057 30.51283762 -17.03607854 27.14997456 -17.02958679 23.78657532 C-17.03880157 22.79362961 -17.04801636 21.8006839 -17.05751038 20.77764893 C-17.01996593 14.56835394 -16.35420478 9.99542757 -11.91923523 5.28388977 C-11.32239929 4.80564758 -10.72556335 4.3274054 -10.11064148 3.83467102 C-9.51122742 3.34353821 -8.91181335 2.8524054 -8.29423523 2.34638977 C-5.39922689 0.20478119 -3.55099071 0.01766112 0 0 Z " fill="#FBFDFD" transform="translate(635.6731414794922,668.8528289794922)"/>
<path d="M0 0 C45.21 0 90.42 0 137 0 C137 18.81 137 37.62 137 57 C144.92 57 152.84 57 161 57 C166.9834514 59.9917257 170.01165208 62.02330415 173 68 C173.10849152 70.50077421 173.15730985 72.9741263 173.16113281 75.47558594 C173.16609772 76.24652588 173.17106262 77.01746582 173.17617798 77.81176758 C173.1908152 80.36931239 173.19760509 82.92679513 173.203125 85.484375 C173.20887631 87.26076255 173.21463405 89.03715009 173.22039795 90.8135376 C173.23091316 94.54268687 173.23675204 98.27181455 173.24023438 102.00097656 C173.24571232 106.77368361 173.2697231 111.54610438 173.29820633 116.31872177 C173.31685651 119.99050725 173.32203963 123.6622242 173.32357025 127.33405304 C173.32659325 129.09307669 173.33460986 130.85209923 173.34775543 132.61107635 C173.36486163 135.0765488 173.36292442 137.54132779 173.35644531 140.00683594 C173.3656601 140.73018127 173.37487488 141.45352661 173.3843689 142.1987915 C173.3460331 146.86924268 172.4457501 150.02784774 170 154 C164.64124738 159.07671301 159.78543585 160.30543145 152.5546875 160.23046875 C151.44039368 160.23059715 151.44039368 160.23059715 150.30358887 160.23072815 C147.82721612 160.22741027 145.35128326 160.20838197 142.875 160.1875 C141.12841903 160.17786517 139.38183696 160.16842959 137.63525391 160.15917969 C132.81494572 160.128973 127.99493681 160.08045041 123.17480469 160.02996826 C119.85613585 159.99864201 116.53750777 159.97713658 113.21875 159.95751953 C107.41164833 159.92167762 101.60514194 159.86312278 95.79840088 159.78945923 C93.52222017 159.76322323 91.24595749 159.74331191 88.96966553 159.72982788 C85.75786621 159.70856879 82.54735504 159.66206162 79.3359375 159.609375 C78.37820435 159.60813126 77.42047119 159.60688751 76.43371582 159.60560608 C70.80465653 159.4813871 67.43152511 158.81230673 63 155 C58.47258553 149.12659745 57.85101857 144.82720602 57.82299805 137.58862305 C57.81642685 136.84825806 57.80985565 136.10789307 57.80308533 135.34509277 C57.78341238 132.90063364 57.77170371 130.45623574 57.76171875 128.01171875 C57.75764322 127.17461679 57.7535677 126.33751484 57.74936867 125.47504616 C57.72853439 121.04497146 57.71422078 116.6149275 57.70483398 112.18481445 C57.69376975 107.61843346 57.65936235 103.05253977 57.61966228 98.48633099 C57.5934739 94.96634538 57.58514024 91.44647559 57.58155251 87.92640114 C57.57669298 86.24354572 57.56509706 84.56069525 57.54651451 82.87793541 C57.52207273 80.51808753 57.52309656 78.15949719 57.5300293 75.79956055 C57.51721924 75.11100479 57.50440918 74.42244904 57.49121094 73.71302795 C57.54859503 68.32707961 59.02270824 65.33534183 62 61 C66.81256354 57.03597063 71.25344581 56.43711647 77.33984375 56.609375 C78.10680069 56.61503479 78.87375763 56.62069458 79.66395569 56.62652588 C82.08913314 56.64873506 84.51277694 56.69889738 86.9375 56.75 C88.59177538 56.7700852 90.24607416 56.78833242 91.90039062 56.8046875 C95.93464518 56.84513115 99.9656271 56.92343836 104 57 C104 49.41 104 41.82 104 34 C69.68 34 35.36 34 0 34 C0 22.78 0 11.56 0 0 Z " fill="#FCFDFE" transform="translate(567,411)"/>
<path d="M0 0 C0.86763474 -0.00571014 1.73526947 -0.01142029 2.62919617 -0.01730347 C4.0528801 -0.01898026 4.0528801 -0.01898026 5.50532532 -0.02069092 C6.50728439 -0.02565582 7.50924347 -0.03062073 8.54156494 -0.03573608 C11.86323225 -0.05036521 15.18485176 -0.05716177 18.50654602 -0.06268311 C20.81479901 -0.06843492 23.12305198 -0.07419265 25.43130493 -0.07995605 C30.27596764 -0.09046885 35.12061374 -0.09630937 39.96528625 -0.09979248 C46.16477533 -0.10527094 52.36404409 -0.12928413 58.56346416 -0.15776443 C63.33421462 -0.17641653 68.10491235 -0.18159784 72.87569618 -0.18312836 C75.16057855 -0.18615072 77.44546009 -0.19416517 79.73030663 -0.20731354 C82.93282532 -0.22442375 86.13481034 -0.22248117 89.33735657 -0.21600342 C90.27635803 -0.2252182 91.2153595 -0.23443298 92.18281555 -0.243927 C98.67298571 -0.20293419 104.51674215 0.56669835 109.76826477 4.75372314 C110.2142804 5.31446533 110.66029602 5.87520752 111.11982727 6.45294189 C111.81205383 7.28245361 111.81205383 7.28245361 112.51826477 8.12872314 C115.91995956 13.70793593 116.04200538 19.16639688 116.03535461 25.49127197 C116.04207184 26.41403427 116.04878906 27.33679657 116.05570984 28.28752136 C116.07465786 31.32839389 116.07861249 34.36904531 116.08076477 37.40997314 C116.08719509 39.5321817 116.09392362 41.65438936 116.10093689 43.77659607 C116.11290179 48.22252456 116.11661853 52.6683754 116.11543274 57.11431885 C116.11522964 62.79695073 116.14252642 68.47908201 116.17697716 74.16159534 C116.19927105 78.54465499 116.2032695 82.92759466 116.20221329 87.31070518 C116.20456569 89.40497245 116.21336879 91.4992432 116.22887802 93.59345436 C116.24858738 96.52979696 116.24268029 99.46506643 116.23066711 102.40142822 C116.24190613 103.25731537 116.25314514 104.11320251 116.26472473 104.99502563 C116.1971821 111.5283761 114.73688827 117.67451584 110.36830711 122.73496723 C104.14919564 128.30868861 97.50279017 128.43586396 89.61201477 128.4151001 C88.60640503 128.42021103 87.60079529 128.42532196 86.56471252 128.43058777 C83.24968978 128.44445697 79.93487553 128.44352921 76.61982727 128.44122314 C74.31106998 128.44511106 72.0023134 128.44944593 69.69355774 128.45420837 C64.85841043 128.46166449 60.02333616 128.46138333 55.18818665 128.45611572 C48.99417213 128.45031685 42.80045622 128.46726538 36.60649109 128.4904604 C31.84010574 128.5051947 27.0737924 128.50606992 22.30738831 128.50295067 C20.02365018 128.50346386 17.73990803 128.50870123 15.45619202 128.51876259 C12.26314384 128.53110577 9.07067869 128.52434804 5.87763977 128.51275635 C4.93616089 128.52040009 3.99468201 128.52804382 3.02467346 128.53591919 C-3.58193255 128.48293702 -7.72136657 127.20284226 -12.94267273 122.95294189 C-18.0714768 116.71520722 -18.69840234 110.30900141 -18.64335632 102.54669189 C-18.64861328 101.62203125 -18.65387024 100.69737061 -18.6592865 99.74468994 C-18.67241366 96.70976513 -18.66377421 93.67537138 -18.65361023 90.64044189 C-18.65563305 88.51869609 -18.65854623 86.39695096 -18.66230774 84.27520752 C-18.66672124 79.83698888 -18.66033135 75.39895186 -18.64628601 70.96075439 C-18.62919487 65.28486675 -18.63904126 59.60940476 -18.6570034 53.93353271 C-18.66786751 49.55479756 -18.66438282 45.17616256 -18.65662003 40.79742432 C-18.65462529 38.70513864 -18.65705166 36.61284374 -18.66405869 34.52056885 C-18.67171638 31.59153309 -18.66000844 28.6631773 -18.64335632 25.73419189 C-18.64942902 24.87785156 -18.65550171 24.02151123 -18.66175842 23.13922119 C-18.59427918 16.70041575 -17.6276011 10.92900185 -13.31767273 5.86309814 C-12.29673523 5.0413208 -12.29673523 5.0413208 -11.25517273 4.20294189 C-10.57454773 3.63704346 -9.89392273 3.07114502 -9.19267273 2.48809814 C-6.15344207 0.37411714 -3.597917 0.01419864 0 0 Z " fill="#FBFDFD" transform="translate(474.2551727294922,246.85955810546875)"/>
<path d="M0 0 C10.56 0 21.12 0 32 0 C32 23.1 32 46.2 32 70 C72.92 70 113.84 70 156 70 C156 81.22 156 92.44 156 104 C104.52 104 53.04 104 0 104 C0 69.68 0 35.36 0 0 Z " fill="#ECF1F5" transform="translate(330,341)"/>
<path d="M0 0 C42.24 0 84.48 0 128 0 C128 11.55 128 23.1 128 35 C123.77316406 35.03867187 123.77316406 35.03867187 119.4609375 35.078125 C116.72044039 35.11657912 113.98012928 35.16172846 111.23974609 35.20751953 C109.34074846 35.2356792 107.4416347 35.25691858 105.54248047 35.27099609 C102.80636362 35.29249518 100.07163548 35.33918008 97.3359375 35.390625 C96.49195404 35.39185364 95.64797058 35.39308228 94.77841187 35.39434814 C89.3856721 35.52720734 86.2911999 36.44431749 82 40 C77.72860993 44.73316197 76.89852806 48.16779955 76.5 54.4375 C76.26229049 58.16869039 75.91073652 61.35705391 75 65 C50.25 65 25.5 65 0 65 C0 43.55 0 22.1 0 0 Z " fill="#000000" transform="translate(543,634)"/>
<path d="M0 0 C27.06 0 54.12 0 82 0 C82.33 7.26 82.66 14.52 83 22 C86.42415039 30.11372145 86.42415039 30.11372145 93.19604492 35.11083984 C96.70121214 36.22236087 99.81224711 36.32618917 103.48828125 36.4140625 C104.19147995 36.43342865 104.89467865 36.4527948 105.6191864 36.4727478 C107.85017019 36.53220183 110.08120654 36.57879049 112.3125 36.625 C113.83140186 36.66321137 115.35028278 36.70226492 116.86914062 36.7421875 C120.5793139 36.83945037 124.28928263 36.91928606 128 37 C128 46.57 128 56.14 128 66 C85.76 66 43.52 66 0 66 C0 44.22 0 22.44 0 0 Z " fill="#010202" transform="translate(543,534)"/>
<path d="M0 0 C51.48 0 102.96 0 156 0 C156 11.22 156 22.44 156 34 C115.08 34 74.16 34 32 34 C32 45.55 32 57.1 32 69 C21.44 69 10.88 69 0 69 C0 46.23 0 23.46 0 0 Z " fill="#EDF2F7" transform="translate(330,600)"/>
<path d="M0 0 C45.21 0 90.42 0 137 0 C137 18.81 137 37.62 137 57 C126.11 57 115.22 57 104 57 C104 49.41 104 41.82 104 34 C69.68 34 35.36 34 0 34 C0 22.78 0 11.56 0 0 Z " fill="#EEF3F8" transform="translate(567,411)"/>
<path d="M0 0 C0.33 0 0.66 0 1 0 C1 1.65 1 3.3 1 5 C9.25 5 17.5 5 26 5 C26 15.89 26 26.78 26 38 C74.84 38 123.68 38 174 38 C173.67 28.43 173.34 18.86 173 9 C173 7.66666667 173 6.33333333 173 5 C180.59 5 188.18 5 196 5 C196.33 3.68 196.66 2.36 197 1 C197 31.03 197 61.06 197 92 C196.67 92 196.34 92 196 92 C196 74.51 196 57.02 196 39 C131.65 39 67.3 39 1 39 C1 56.16 1 73.32 1 91 C0.67 91 0.34 91 0 91 C0 60.97 0 30.94 0 0 Z " fill="#B4B9C0" transform="translate(422,694)"/>
<path d="M0 0 C6.54296007 -0.02567853 13.08590682 -0.04300231 19.62890625 -0.05493164 C21.84766119 -0.05991291 24.06641293 -0.06670035 26.28515625 -0.07543945 C53.78196242 -0.18091005 53.78196242 -0.18091005 64 1 C65.91064299 2.91064299 65.12014611 5.73827895 65.12442017 8.28016663 C65.12082489 9.18359299 65.11722961 10.08701935 65.11352539 11.01782227 C65.11367142 11.96406464 65.11381744 12.91030701 65.1139679 13.88522339 C65.11326836 17.02897392 65.10547409 20.17266601 65.09765625 23.31640625 C65.09579221 25.48974068 65.09436824 27.66307552 65.09336853 29.83641052 C65.08954221 35.56901195 65.07971097 41.30158823 65.06866455 47.03417969 C65.05845287 52.87890279 65.05387143 58.72362993 65.04882812 64.56835938 C65.0380888 76.04558577 65.02049108 87.52278686 65 99 C54.11 99 43.22 99 32 99 C32 87.45 32 75.9 32 64 C-10.24 64 -52.48 64 -96 64 C-96 63.67 -96 63.34 -96 63 C-53.43 63 -10.86 63 33 63 C33.33 67.95 33.66 72.9 34 78 C43.9 78 53.8 78 64 78 C64 59.85 64 41.7 64 23 C55.09 23 46.18 23 37 23 C35.68 22.67 34.36 22.34 33 22 C33 24.64 33 27.28 33 30 C32.67 30 32.34 30 32 30 C32 20.43 32 10.86 32 1 C21.44 1 10.88 1 0 1 C0 0.67 0 0.34 0 0 Z " fill="#C8CED3" transform="translate(639,570)"/>
<path d="M0 0 C10.89 0 21.78 0 33 0 C33 37.95 33 75.9 33 115 C32.67 115 32.34 115 32 115 C32 84.64 32 54.28 32 23 C21.44 23 10.88 23 0 23 C0 15.41 0 7.82 0 0 Z " fill="#ACB0B7" transform="translate(510,375)"/>
<path d="M0 0 C0 11.22 0 22.44 0 34 C-8.25 33.67 -16.5 33.34 -25 33 C-25 22.77 -25 12.54 -25 2 C-22.545625 1.67 -20.09125 1.34 -17.5625 1 C-16.80912354 0.89558594 -16.05574707 0.79117187 -15.27954102 0.68359375 C-10.05326893 0.00689725 -5.373912 0 0 0 Z " fill="#C8CED3" transform="translate(625,500)"/>
<path d="M0 0 C10.56 0 21.12 0 32 0 C32 7.59 32 15.18 32 23 C27.74089372 25.12955314 26.1116314 25.18689234 21.484375 24.9765625 C20.23398437 24.925 18.98359375 24.8734375 17.6953125 24.8203125 C16.39335937 24.75585938 15.09140625 24.69140625 13.75 24.625 C12.43257813 24.56828125 11.11515625 24.5115625 9.7578125 24.453125 C6.5047765 24.31168865 3.25231736 24.15709627 0 24 C0 16.08 0 8.16 0 0 Z " fill="#CACED3" transform="translate(330,341)"/>
<path d="M0 0 C0.33 0 0.66 0 1 0 C1 12.21 1 24.42 1 37 C-6.59 37 -14.18 37 -22 37 C-22.14289635 32.92490217 -22.28547704 28.84979522 -22.42724609 24.7746582 C-22.4755617 23.38858396 -22.52406285 22.00251618 -22.57275391 20.61645508 C-22.64274186 18.62322675 -22.71200543 16.62997304 -22.78125 14.63671875 C-22.82314453 13.43748779 -22.86503906 12.23825684 -22.90820312 11.00268555 C-22.97966452 8.6651757 -23 6.33827942 -23 4 C-15.41 4 -7.82 4 0 4 C0 2.68 0 1.36 0 0 Z " fill="#C4CBD0" transform="translate(618,695)"/>
<path d="M0 0 C6.54296007 -0.02567853 13.08590682 -0.04300231 19.62890625 -0.05493164 C21.84766119 -0.05991291 24.06641293 -0.06670035 26.28515625 -0.07543945 C53.78196242 -0.18091005 53.78196242 -0.18091005 64 1 C65 2 65 2 65.11352539 3.94946289 C65.10567017 5.1984436 65.10567017 5.1984436 65.09765625 6.47265625 C65.09515869 7.28226807 65.09266113 8.09187988 65.09008789 8.92602539 C65.08098389 9.96106201 65.07187988 10.99609863 65.0625 12.0625 C65.041875 15.341875 65.02125 18.62125 65 22 C54.44 22 43.88 22 33 22 C33 24.64 33 27.28 33 30 C32.67 30 32.34 30 32 30 C32 20.43 32 10.86 32 1 C21.44 1 10.88 1 0 1 C0 0.67 0 0.34 0 0 Z " fill="#A2A7AF" transform="translate(639,570)"/>
<path d="M0 0 C0.33 0 0.66 0 1 0 C1 11.55 1 23.1 1 35 C-9.56 35 -20.12 35 -31 35 C-30.67 28.07 -30.34 21.14 -30 14 C-20.1 14 -10.2 14 0 14 C0 9.38 0 4.76 0 0 Z " fill="#D4D9DE" transform="translate(361,634)"/>
<path d="M0 0 C34.65 0 69.3 0 105 0 C105 4.62 105 9.24 105 14 C120.84 14.495 120.84 14.495 137 15 C137 17.97 137 20.94 137 24 C126.11 24 115.22 24 104 24 C104 16.41 104 8.82 104 1 C69.68 1 35.36 1 0 1 C0 0.67 0 0.34 0 0 Z " fill="#AFB5BB" transform="translate(567,444)"/>
<path d="M0 0 C71.28 0 142.56 0 216 0 C215 2 215 2 213 3 C213 2.34 213 1.68 213 1 C211.88625 1.185625 210.7725 1.37125 209.625 1.5625 C206 2 206 2 204 1 C203.814375 1.928125 203.814375 1.928125 203.625 2.875 C203 5 203 5 201 7 C200.67 5.35 200.34 3.7 200 2 C197.89590361 1.97298592 195.79170822 1.95359777 193.6875 1.9375 C192.51574219 1.92589844 191.34398437 1.91429687 190.13671875 1.90234375 C186.96940805 1.85100102 186.96940805 1.85100102 184 3 C183.01 3 182.02 3 181 3 C181 2.34 181 1.68 181 1 C180.01 1.33 179.02 1.66 178 2 C177.01 1.505 177.01 1.505 176 1 C176 1.99 176 2.98 176 4 C175.01 3.505 175.01 3.505 174 3 C172.07361988 2.24756445 172.07361988 2.24756445 170 2 C169.01 2.66 168.02 3.32 167 4 C167 3.34 167 2.68 167 2 C165.35 2 163.7 2 162 2 C162 2.66 162 3.32 162 4 C161.01 3.67 160.02 3.34 159 3 C156.10836563 2.15760773 153.56810193 1.88149562 150.55859375 1.90234375 C149.31239258 1.90717773 149.31239258 1.90717773 148.04101562 1.91210938 C147.18185547 1.92048828 146.32269531 1.92886719 145.4375 1.9375 C144.14295898 1.94426758 144.14295898 1.94426758 142.82226562 1.95117188 C141.22190979 1.95987622 139.62156285 1.97063684 138.02124023 1.98413086 C135.55509122 2.00349306 133.09097651 2.00134669 130.625 1.96484375 C129.75875 1.95582031 128.8925 1.94679688 128 1.9375 C127.13375 1.92589844 126.2675 1.91429687 125.375 1.90234375 C122.84923649 1.89637375 122.84923649 1.89637375 120 3 C117.66404762 2.68554487 115.33094534 2.3496418 113 2 C109.29106092 1.74900133 109.29106092 1.74900133 106 2 C105.34 2.66 104.68 3.32 104 4 C104 3.34 104 2.68 104 2 C103.00818726 2.05329468 103.00818726 2.05329468 101.99633789 2.10766602 C99.01864712 2.26466247 96.04061043 2.41368634 93.0625 2.5625 C92.02158203 2.61857422 90.98066406 2.67464844 89.90820312 2.73242188 C88.91884766 2.78076172 87.92949219 2.82910156 86.91015625 2.87890625 C85.53549194 2.94960327 85.53549194 2.94960327 84.13305664 3.02172852 C82 3 82 3 81 2 C79.31816052 1.76712992 77.6287584 1.58735834 75.9375 1.4375 C75.01839844 1.35371094 74.09929687 1.26992188 73.15234375 1.18359375 C72.44207031 1.12300781 71.73179687 1.06242188 71 1 C70.67 1.99 70.34 2.98 70 4 C70 3.01 70 2.02 70 1 C69.13375 1.165 68.2675 1.33 67.375 1.5 C64 2 64 2 60.8125 1.875 C57.96659299 1.72465404 57.96659299 1.72465404 56.125 3.5 C55.75375 3.995 55.3825 4.49 55 5 C54.505 4.01 54.505 4.01 54 3 C54.33 2.34 54.66 1.68 55 1 C53.58460938 1.10828125 53.58460938 1.10828125 52.140625 1.21875 C44.83151062 1.74711971 37.62774564 2.09587575 30.29296875 1.9375 C27.96940292 1.83918313 27.96940292 1.83918313 26 3 C26 2.34 26 1.68 26 1 C25.11699219 1.0721875 24.23398437 1.144375 23.32421875 1.21875 C15.86283421 1.79578511 8.48302669 2.13744335 1 2 C0.67 1.34 0.34 0.68 0 0 Z " fill="#93969F" transform="translate(505,861)"/>
<path d="M0 0 C6.54296007 -0.02567853 13.08590682 -0.04300231 19.62890625 -0.05493164 C21.84766119 -0.05991291 24.06641293 -0.06670035 26.28515625 -0.07543945 C53.78196242 -0.18091005 53.78196242 -0.18091005 64 1 C65 2 65 2 65.09765625 5.59765625 C65.0909822 7.08596867 65.07902183 8.57426432 65.0625 10.0625 C65.05798828 10.82111328 65.05347656 11.57972656 65.04882812 12.36132812 C65.0370068 14.24091871 65.01907078 16.12046899 65 18 C64.67 18 64.34 18 64 18 C64 14.37 64 10.74 64 7 C60 8.5 60 8.5 59 11 C56.9375 11.625 56.9375 11.625 55 12 C55 12.99 55 13.98 55 15 C53.68 15.33 52.36 15.66 51 16 C50.71125 15.38125 50.4225 14.7625 50.125 14.125 C49.06279958 11.86674235 49.06279958 11.86674235 47 10 C46.01 10 45.02 10 44 10 C43.87625 9.360625 43.7525 8.72125 43.625 8.0625 C43.41875 7.381875 43.2125 6.70125 43 6 C42.34 5.67 41.68 5.34 41 5 C41 5.66 41 6.32 41 7 C38.69 7.33 36.38 7.66 34 8 C33.67 15.26 33.34 22.52 33 30 C32.67 30 32.34 30 32 30 C32 20.43 32 10.86 32 1 C21.44 1 10.88 1 0 1 C0 0.67 0 0.34 0 0 Z " fill="#899094" transform="translate(639,570)"/>
<path d="M0 0 C0 0.66 0 1.32 0 2 C94.05 2.495 94.05 2.495 190 3 C190 20.82 190 38.64 190 57 C189.67 57 189.34 57 189 57 C189 39.51 189 22.02 189 4 C124.65 4 60.3 4 -6 4 C-6 21.16 -6 38.32 -6 56 C-6.33 56 -6.66 56 -7 56 C-7 37.85 -7 19.7 -7 1 C-4 0 -4 0 0 0 Z M3 0 C3.66 0.66 4.32 1.32 5 2 C4.34 2 3.68 2 3 2 C3 1.34 3 0.68 3 0 Z " fill="#798390" transform="translate(429,729)"/>
<path d="M0 0 C63.03 0 126.06 0 191 0 C191 0.33 191 0.66 191 1 C189.88625 1.144375 188.7725 1.28875 187.625 1.4375 C184.17857953 1.78372035 184.17857953 1.78372035 182 3 C182 2.34 182 1.68 182 1 C180.99839844 1.16371094 179.99679687 1.32742188 178.96484375 1.49609375 C175.10193303 1.98704497 171.45336189 2.09834213 167.5625 2.0625 C166.53684937 2.05682007 166.53684937 2.05682007 165.49047852 2.05102539 C162.59871763 2.03485186 159.70710497 2.006638 156.81542969 1.97949219 C154.68945993 1.96128875 152.56351359 1.94927361 150.4375 1.9375 C149.17808594 1.92589844 147.91867187 1.91429687 146.62109375 1.90234375 C143.00825563 1.99977736 139.57105745 2.47160679 136 3 C133.875 2.5625 133.875 2.5625 132 2 C129.45792029 1.66656449 129.45792029 1.66656449 127 2 C125.18523997 3.39585785 125.18523997 3.39585785 124 5 C123.505 4.505 123.01 4.01 122.5 3.5 C118.88457082 1.33074249 116.19717625 1.86675631 112 2 C111.01 1.67 110.02 1.34 109 1 C108.67 1.66 108.34 2.32 108 3 C107.29230469 2.83886719 106.58460938 2.67773438 105.85546875 2.51171875 C102.95420419 1.99179309 100.25765087 1.83258971 97.3125 1.8125 C96.35988281 1.79832031 95.40726562 1.78414062 94.42578125 1.76953125 C91.81787718 1.75741803 91.81787718 1.75741803 90 4 C89.505 3.01 89.505 3.01 89 2 C88.34 2.33 87.68 2.66 87 3 C85.24618264 2.91116285 83.49541237 2.75563989 81.75 2.5625 C78.60371419 2.23673777 75.60526393 2 72.4375 2 C70 2 70 2 68 1 C67.67 1.99 67.34 2.98 67 4 C67 3.01 67 2.02 67 1 C65.68 1.66 64.36 2.32 63 3 C63 2.34 63 1.68 63 1 C61.35 1.66 59.7 2.32 58 3 C58 2.34 58 1.68 58 1 C54.06924356 1.57452746 54.06924356 1.57452746 51 4 C51 3.01 51 2.02 51 1 C50.34 1 49.68 1 49 1 C48.67 1.66 48.34 2.32 48 3 C48 2.34 48 1.68 48 1 C46.6078125 1.2475 46.6078125 1.2475 45.1875 1.5 C40.9042337 2.13195732 36.67529392 2.03283407 32.35546875 1.9375 C29.97870926 1.83425709 29.97870926 1.83425709 28 3 C28 2.34 28 1.68 28 1 C26.68 1 25.36 1 24 1 C23.67 1.66 23.34 2.32 23 3 C23 2.34 23 1.68 23 1 C15.41 1 7.82 1 0 1 C0 0.67 0 0.34 0 0 Z " fill="#979AA4" transform="translate(303,861)"/>
<path d="M0 0 C2.2924236 4.36573521 2.31330659 7.06542128 2 12 C1.01 13.485 1.01 13.485 0 15 C0.3355782 18.01349195 0.3355782 18.01349195 1 21 C1 24 1 24 0 25.75 C-1.39248568 28.88309278 -1.12338143 31.60701055 -1 35 C-1 35.99 -1 36.98 -1 38 C-0.814375 38.9075 -0.62875 39.815 -0.4375 40.75 C0.05946062 44.44170748 -0.47237434 47.30662036 -1 51 C-1.20346432 57.09639386 -1.39767385 63.03215451 0 69 C-0.66 69 -1.32 69 -2 69 C-1.7525 70.23363281 -1.7525 70.23363281 -1.5 71.4921875 C-0.94333553 75.39753666 -0.92706474 79.19378971 -1 83.125 C-1.18489399 89.13909766 -1.18489399 89.13909766 0 95 C-0.66 95 -1.32 95 -2 95 C-2 95.66 -2 96.32 -2 97 C-1.34 97.33 -0.68 97.66 0 98 C0 99.32 0 100.64 0 102 C-0.99 102.495 -0.99 102.495 -2 103 C-2.65213292 105.02463255 -2.65213292 105.02463255 -3 107 C-3.06998306 95.70675434 -3.12305381 84.41356157 -3.15543652 73.12014198 C-3.17099056 67.87428671 -3.19203767 62.62858147 -3.22631836 57.3828125 C-3.25928243 52.30585666 -3.27692981 47.22904371 -3.28463173 42.15198898 C-3.29010959 40.22982921 -3.30080291 38.30767588 -3.31719017 36.38557816 C-3.41901278 23.92974894 -2.4729476 12.21735305 0 0 Z " fill="#1A181D" transform="translate(176,312)"/>
<path d="M0 0 C2.06753926 3.10130889 2.25140427 3.77162356 2.25878906 7.28442383 C2.26509338 8.14574417 2.27139771 9.00706451 2.27789307 9.89448547 C2.2738446 10.82262558 2.26979614 11.75076569 2.265625 12.70703125 C2.26753845 13.66518234 2.2694519 14.62333344 2.27142334 15.61051941 C2.27278478 17.63886782 2.26909121 19.66722496 2.26074219 21.69555664 C2.25007728 24.79007754 2.26062076 27.88401324 2.2734375 30.97851562 C2.27211521 32.95052211 2.26955138 34.92252823 2.265625 36.89453125 C2.26967346 37.81659866 2.27372192 38.73866608 2.27789307 39.68867493 C2.24244488 44.58491268 1.70655257 48.35906239 0 53 C0.29891234 56.76742779 0.29891234 56.76742779 1 60 C0.01 60.495 0.01 60.495 -1 61 C-1.23449291 62.90944223 -1.46296539 64.8199319 -1.65234375 66.734375 C-2.21441948 70.39734045 -3.60588602 73.57280312 -5 77 C-5.33 77.99 -5.66 78.98 -6 80 C-5.67 80.66 -5.34 81.32 -5 82 C-6.98 82.495 -6.98 82.495 -9 83 C-8.38920523 78.13233968 -7.41122904 73.54362928 -6.125 68.8125 C-0.37393396 46.07096156 -0.30736565 23.3326186 0 0 Z " fill="#9799A2" transform="translate(859,685)"/>
<path d="M0 0 C3.62722215 1.03634918 6.40465375 0.98004468 10.125 0.5 C12.043125 0.2525 12.043125 0.2525 14 0 C14 0.99 14 1.98 14 3 C13.360625 3.28875 12.72125 3.5775 12.0625 3.875 C9.84793921 4.82823451 9.84793921 4.82823451 9 7 C6.9375 7.625 6.9375 7.625 5 8 C5 8.99 5 9.98 5 11 C3.68 11.33 2.36 11.66 1 12 C0.71125 11.38125 0.4225 10.7625 0.125 10.125 C-0.93720042 7.86674235 -0.93720042 7.86674235 -3 6 C-3.99 6 -4.98 6 -6 6 C-6.12375 5.360625 -6.2475 4.72125 -6.375 4.0625 C-6.684375 3.0415625 -6.684375 3.0415625 -7 2 C-7.66 1.67 -8.32 1.34 -9 1 C-9.33 1.66 -9.66 2.32 -10 3 C-10 2.01 -10 1.02 -10 0 C-5.84966656 -2.1344572 -4.15111806 -2.02233957 0 0 Z " fill="#91969E" transform="translate(689,574)"/>
<path d="M0 0 C1.98 0 3.96 0 6 0 C6 11.22 6 22.44 6 34 C4.35 34 2.7 34 1 34 C-0.19688811 29.81089163 0.40097087 27.95054256 2 24 C2.03888349 21.66699067 2.0448635 19.33290199 2 17 C2.33 16.67 2.66 16.34 3 16 C3.07258946 13.81360547 3.08373783 11.62499611 3.0625 9.4375 C3.05347656 8.23996094 3.04445313 7.04242188 3.03515625 5.80859375 C3.02355469 4.88175781 3.01195312 3.95492188 3 3 C2.01 3.33 1.02 3.66 0 4 C-0.33 3.01 -0.66 2.02 -1 1 C-0.67 0.67 -0.34 0.34 0 0 Z " fill="#A9B1B8" transform="translate(619,500)"/>
<path d="M0 0 C0.33 0 0.66 0 1 0 C1 1.65 1 3.3 1 5 C4.63 5 8.26 5 12 5 C12 5.33 12 5.66 12 6 C10.35 6.33 8.7 6.66 7 7 C3.39906903 16.83428803 3.39906903 16.83428803 4 27 C3.67 27.99 3.34 28.98 3 30 C3 30.99 3 31.98 3 33 C1.515 33.495 1.515 33.495 0 34 C0 22.78 0 11.56 0 0 Z " fill="#858E95" transform="translate(422,694)"/>
<path d="M0 0 C10.23 0 20.46 0 31 0 C31 1.65 31 3.3 31 5 C30.67 4.34 30.34 3.68 30 3 C28.56344146 2.91868537 27.1255517 2.86066441 25.6875 2.8125 C24.88699219 2.77769531 24.08648438 2.74289062 23.26171875 2.70703125 C20.52148416 3.06198392 19.70828921 3.89366282 18 6 C16.68 5.01 15.36 4.02 14 3 C13.401875 3.33 12.80375 3.66 12.1875 4 C10 5 10 5 7 5 C6.67 4.34 6.34 3.68 6 3 C5.34 3 4.68 3 4 3 C3.34 4.65 2.68 6.3 2 8 C0.23537317 4.91190305 0 3.76687864 0 0 Z " fill="#8A9197" transform="translate(510,375)"/>
<path d="M0 0 C0.33 0.99 0.66 1.98 1 3 C0.24976563 3.71542969 -0.50046875 4.43085938 -1.2734375 5.16796875 C-14.34385671 17.55261181 -14.34385671 17.55261181 -23 33 C-23.66 33 -24.32 33 -25 33 C-25.2165625 34.11375 -25.2165625 34.11375 -25.4375 35.25 C-25.90187492 37.52027739 -26.41863569 39.75759479 -27 42 C-28.98 42.495 -28.98 42.495 -31 43 C-29.52707145 37.70407713 -27.10086685 33.55349747 -24.125 29 C-23.64393799 28.26031982 -23.16287598 27.52063965 -22.66723633 26.75854492 C-16.13164431 16.93040485 -8.39144176 8.26749136 0 0 Z " fill="#313435" transform="translate(220,238)"/>
<path d="M0 0 C0 0.66 0 1.32 0 2 C-4.98184886 4.7173721 -9.33034565 6.52225517 -14.921875 7.5078125 C-17.16763364 8.0397027 -18.95036298 8.95795765 -21 10 C-21.66 10 -22.32 10 -23 10 C-23.66 10.66 -24.32 11.32 -25 12 C-26.66605828 12.0450286 -28.33378384 12.03874921 -30 12 C-31.67207623 12.30504093 -33.33833875 12.64254961 -35 13 C-36.89368704 13.40597717 -38.78959835 13.80170553 -40.6875 14.1875 C-41.64011719 14.38730469 -42.59273437 14.58710937 -43.57421875 14.79296875 C-44.37472656 14.86128906 -45.17523437 14.92960938 -46 15 C-46.66 14.34 -47.32 13.68 -48 13 C-46.95211304 12.77449463 -46.95211304 12.77449463 -45.88305664 12.54443359 C-32.14277992 9.55874153 -13.60952814 0 0 0 Z " fill="#848993" transform="translate(780,848)"/>
<path d="M0 0 C4.29 0.33 8.58 0.66 13 1 C12.67 1.66 12.34 2.32 12 3 C10.68 3 9.36 3 8 3 C7.67 4.32 7.34 5.64 7 7 C5.35 7 3.7 7 2 7 C1.67 14.26 1.34 21.52 1 29 C0.67 29 0.34 29 0 29 C0 19.43 0 9.86 0 0 Z " fill="#6C7478" transform="translate(671,571)"/>
<path d="M0 0 C0.33 0 0.66 0 1 0 C1 7.92 1 15.84 1 24 C0.34 24 -0.32 24 -1 24 C-1.33 18.06 -1.66 12.12 -2 6 C-8.93 5.67 -15.86 5.34 -23 5 C-23 4.67 -23 4.34 -23 4 C-15.41 4 -7.82 4 0 4 C0 2.68 0 1.36 0 0 Z " fill="#A5AEB6" transform="translate(618,695)"/>
<path d="M0 0 C2.40180965 4.26035283 2.30738073 7.15875348 2 12 C1.01 13.485 1.01 13.485 0 15 C0.3355782 18.01349195 0.3355782 18.01349195 1 21 C1 24.10551666 0.4606285 25.35261084 -1 28 C-1.66 28 -2.32 28 -3 28 C-3.4633257 18.42460227 -1.71635669 9.37866335 0 0 Z " fill="#36373B" transform="translate(176,312)"/>
<path d="M0 0 C3.3 0.33 6.6 0.66 10 1 C10.33 2.32 10.66 3.64 11 5 C10.01 5.66 9.02 6.32 8 7 C6.80767387 9.05003955 6.80767387 9.05003955 6 11 C5.34 11 4.68 11 4 11 C2.68373308 7.38026598 2 4.90432869 2 1 C1.34 0.67 0.68 0.34 0 0 Z " fill="#A9AFB7" transform="translate(427,700)"/>
<path d="M0 0 C0 0.66 0 1.32 0 2 C6.27 2.33 12.54 2.66 19 3 C19 3.33 19 3.66 19 4 C10.42 4 1.84 4 -7 4 C-7 3.01 -7 2.02 -7 1 C-4 0 -4 0 0 0 Z M3 0 C3.66 0.66 4.32 1.32 5 2 C4.34 2 3.68 2 3 2 C3 1.34 3 0.68 3 0 Z " fill="#90959A" transform="translate(429,729)"/>
<path d="M0 0 C0.33 1.32 0.66 2.64 1 4 C1.66 4 2.32 4 3 4 C2.855625 4.680625 2.71125 5.36125 2.5625 6.0625 C0.98315037 13.06193608 0.98315037 13.06193608 2 20 C1.34 20.33 0.68 20.66 0 21 C-0.66 21.99 -1.32 22.98 -2 24 C-1.03644647 7.1070615 -1.03644647 7.1070615 0 0 Z " fill="#9698A2" transform="translate(858,725)"/>
<path d="M0 0 C0.33 0 0.66 0 1 0 C2.13955862 6.32589627 2.1142637 12.52278338 2.0625 18.9375 C2.05798828 20.00291016 2.05347656 21.06832031 2.04882812 22.16601562 C2.03711787 24.77740291 2.02071724 27.38867124 2 30 C1.34 29.67 0.68 29.34 0 29 C0.01160156 27.79601562 0.02320313 26.59203125 0.03515625 25.3515625 C0.04453434 23.77604321 0.05363452 22.20052225 0.0625 20.625 C0.07087891 19.8309375 0.07925781 19.036875 0.08789062 18.21875 C0.23040151 13.97607778 0.23040151 13.97607778 -1 10 C-0.9129796 8.28766312 -0.75902838 6.57824594 -0.5625 4.875 C-0.46066406 3.96492188 -0.35882813 3.05484375 -0.25390625 2.1171875 C-0.17011719 1.41851562 -0.08632813 0.71984375 0 0 Z " fill="#17161A" transform="translate(327,373)"/>
<path d="M0 0 C0.33 0.99 0.66 1.98 1 3 C0.15695313 3.83144531 -0.68609375 4.66289062 -1.5546875 5.51953125 C-2.66159075 6.61705397 -3.7683543 7.71471759 -4.875 8.8125 C-5.43058594 9.35970703 -5.98617187 9.90691406 -6.55859375 10.47070312 C-7.36103516 11.26831055 -7.36103516 11.26831055 -8.1796875 12.08203125 C-8.67194824 12.56905518 -9.16420898 13.0560791 -9.67138672 13.55786133 C-11.22588489 15.17003501 -11.22588489 15.17003501 -13 18 C-13.66 18 -14.32 18 -15 18 C-13.34890181 13.93122232 -10.46404222 11.02285879 -7.5 7.875 C-7.00113281 7.33746094 -6.50226563 6.79992187 -5.98828125 6.24609375 C-4.02214504 4.13236554 -2.04136111 2.04136111 0 0 Z " fill="#363536" transform="translate(220,238)"/>
<path d="M0 0 C2.09876543 3.45679012 2.09876543 3.45679012 1.625 6.0625 C1.41875 6.701875 1.2125 7.34125 1 8 C1 10.02227124 1.02395413 12.04466644 1.0703125 14.06640625 C1.08835938 15.22011719 1.10640625 16.37382812 1.125 17.5625 C1.14820313 18.71878906 1.17140625 19.87507813 1.1953125 21.06640625 C1 24 1 24 -1 26 C-1.02886751 21.85418113 -1.04675327 17.70838784 -1.0625 13.5625 C-1.07087891 12.37849609 -1.07925781 11.19449219 -1.08789062 9.97460938 C-1.09111328 8.84990234 -1.09433594 7.72519531 -1.09765625 6.56640625 C-1.10289307 5.52427979 -1.10812988 4.48215332 -1.11352539 3.40844727 C-1 1 -1 1 0 0 Z " fill="#151419" transform="translate(174,471)"/>
<path d="M0 0 C0.99 0.33 1.98 0.66 3 1 C2.125 6.75 2.125 6.75 1 9 C2.32 9.66 3.64 10.32 5 11 C4.484375 11.391875 3.96875 11.78375 3.4375 12.1875 C2.7259375 13.0846875 2.7259375 13.0846875 2 14 C2.23043864 16.65466049 2.23043864 16.65466049 3 19 C2.34 19 1.68 19 1 19 C0.67 19.99 0.34 20.98 0 22 C0 14.74 0 7.48 0 0 Z " fill="#121014" transform="translate(173,540)"/>
<path d="M0 0 C2.64883144 7.94649431 1.82462771 14.93243119 0 23 C-0.33 23 -0.66 23 -1 23 C-1.02887512 19.35418313 -1.04675585 15.70839537 -1.0625 12.0625 C-1.07087891 11.02158203 -1.07925781 9.98066406 -1.08789062 8.90820312 C-1.09272461 7.42416992 -1.09272461 7.42416992 -1.09765625 5.91015625 C-1.10289307 4.99371338 -1.10812988 4.07727051 -1.11352539 3.13305664 C-1 1 -1 1 0 0 Z " fill="#141216" transform="translate(174,511)"/>
<path d="M0 0 C2.475 0.495 2.475 0.495 5 1 C3.68 5.29 2.36 9.58 1 14 C0.67 14 0.34 14 0 14 C0 9.38 0 4.76 0 0 Z " fill="#8E939C" transform="translate(424,700)"/>
<path d="M0 0 C1.98 0 3.96 0 6 0 C6 3.96 6 7.92 6 12 C5.01 12.495 5.01 12.495 4 13 C3.67 9.7 3.34 6.4 3 3 C2.01 3.33 1.02 3.66 0 4 C-0.33 3.01 -0.66 2.02 -1 1 C-0.67 0.67 -0.34 0.34 0 0 Z " fill="#A3AAB3" transform="translate(619,500)"/>
<path d="M0 0 C0 0.66 0 1.32 0 2 C-6.37848752 5.73081346 -11.64576595 6.72962375 -19 7 C-15.89173772 4.92782515 -12.98123641 3.71574645 -9.5 2.375 C-8.3553125 1.92898438 -7.210625 1.48296875 -6.03125 1.0234375 C-3 0 -3 0 0 0 Z " fill="#7F858D" transform="translate(780,848)"/>
<path d="M0 0 C0.8353125 0.556875 0.8353125 0.556875 1.6875 1.125 C1.6875 4.125 1.6875 4.125 0.3125 5.8125 C-1.3125 7.125 -1.3125 7.125 -3.3125 7.125 C-3.43625 6.485625 -3.56 5.84625 -3.6875 5.1875 C-3.996875 4.1665625 -3.996875 4.1665625 -4.3125 3.125 C-4.9725 2.795 -5.6325 2.465 -6.3125 2.125 C-6.6425 2.785 -6.9725 3.445 -7.3125 4.125 C-7.3125 3.135 -7.3125 2.145 -7.3125 1.125 C-2.88173077 -1.09038462 -2.88173077 -1.09038462 0 0 Z " fill="#8A8F96" transform="translate(686.3125,572.875)"/>
<path d="M0 0 C-0.66 2.31 -1.32 4.62 -2 7 C-3.32 7.33 -4.64 7.66 -6 8 C-6.185625 7.071875 -6.185625 7.071875 -6.375 6.125 C-6.87197356 3.80879168 -6.87197356 3.80879168 -9 2 C-3.375 0 -3.375 0 0 0 Z " fill="#2D2D2E" transform="translate(283,204)"/>
<path d="M0 0 C0.33 0.66 0.66 1.32 1 2 C1.66 2 2.32 2 3 2 C2.979375 2.94875 2.95875 3.8975 2.9375 4.875 C2.77448174 7.90666283 2.77448174 7.90666283 4 10 C3.34 10 2.68 10 2 10 C2.33 12.31 2.66 14.62 3 17 C2.34 17.33 1.68 17.66 1 18 C0.6392073 15.18820232 0.2860722 12.37581501 -0.0625 9.5625 C-0.2181543 8.35883789 -0.2181543 8.35883789 -0.37695312 7.13085938 C-0.62644343 5.09192132 -0.81780318 3.04604939 -1 1 C-0.67 0.67 -0.34 0.34 0 0 Z " fill="#CCCFD5" transform="translate(858,326)"/>
<path d="M0 0 C0.33 0 0.66 0 1 0 C1.56834165 5.68341651 -0.30817858 9.20012567 -3 14 C-3.33 14.66 -3.66 15.32 -4 16 C-4.66 16 -5.32 16 -6 16 C-4.43551329 10.3856009 -2.83604813 5.13189662 0 0 Z " fill="#36373B" transform="translate(186,285)"/>
<path d="M0 0 C1.77706209 2.66559313 2.87548273 5.0280615 4 8 C3.34 8 2.68 8 2 8 C1.67 9.32 1.34 10.64 1 12 C0.34 12 -0.32 12 -1 12 C-1.02698189 10.37509046 -1.04638757 8.75005367 -1.0625 7.125 C-1.07410156 6.22007812 -1.08570313 5.31515625 -1.09765625 4.3828125 C-1 2 -1 2 0 0 Z " fill="#2E2E33" transform="translate(174,328)"/>
<path d="M0 0 C0.33 0.99 0.66 1.98 1 3 C1.66 3 2.32 3 3 3 C2.79375 3.763125 2.5875 4.52625 2.375 5.3125 C1.66608797 8.21885944 1.66608797 8.21885944 4 11 C3.01 11.99 2.02 12.98 1 14 C-0.38226016 11.23547967 -0.09525387 8.9538637 -0.0625 5.875 C-0.05347656 4.77929688 -0.04445312 3.68359375 -0.03515625 2.5546875 C-0.02355469 1.71164062 -0.01195312 0.86859375 0 0 Z " fill="#100F13" transform="translate(173,604)"/>
<path d="M0 0 C0.66 0.33 1.32 0.66 2 1 C2 2.98 2 4.96 2 7 C1.34 7 0.68 7 0 7 C-0.33 7.99 -0.66 8.98 -1 10 C-1.33 10 -1.66 10 -2 10 C-2.1953125 3.9453125 -2.1953125 3.9453125 -2 2 C-1.34 1.34 -0.68 0.68 0 0 Z " fill="#A5A8AE" transform="translate(861,358)"/>
<path d="M0 0 C4.95 0 9.9 0 15 0 C15 2.64 15 5.28 15 8 C14.67 8 14.34 8 14 8 C13.67 6.35 13.34 4.7 13 3 C8.71 2.34 4.42 1.68 0 1 C0 0.67 0 0.34 0 0 Z " fill="#B0B0BA" transform="translate(347,341)"/>
<path d="M0 0 C-0.66 1.32 -1.32 2.64 -2 4 C-2 3.34 -2 2.68 -2 2 C-2.84304688 2.16757813 -3.68609375 2.33515625 -4.5546875 2.5078125 C-6.19824219 2.81332031 -6.19824219 2.81332031 -7.875 3.125 C-8.96554687 3.33382812 -10.05609375 3.54265625 -11.1796875 3.7578125 C-12.57574219 3.87769531 -12.57574219 3.87769531 -14 4 C-14.66 3.34 -15.32 2.68 -16 2 C-10.61972975 0.80911014 -5.54708616 -0.2919519 0 0 Z " fill="#333537" transform="translate(300,201)"/>
<path d="M0 0 C-2.35601599 2.35601599 -3.0955573 2.30838856 -6.3125 2.5625 C-8.95942016 2.79229693 -11.34153625 3.07993402 -13.9375 3.6875 C-14.618125 3.790625 -15.29875 3.89375 -16 4 C-16.66 3.34 -17.32 2.68 -18 2 C-11.88019467 0.59545452 -6.28260706 -0.23268915 0 0 Z " fill="#90949C" transform="translate(750,859)"/>
<path d="M0 0 C0.33 0 0.66 0 1 0 C2.10087193 7.01805857 2.09733092 13.90565767 2 21 C1.67 21 1.34 21 1 21 C1 18.03 1 15.06 1 12 C0.34 12 -0.32 12 -1 12 C-0.67 8.04 -0.34 4.08 0 0 Z " fill="#C0C3CC" transform="translate(541,386)"/>
<path d="M0 0 C0.67578125 1.70703125 0.67578125 1.70703125 1 4 C-0.14453125 6.32421875 -0.14453125 6.32421875 -1.8125 8.6875 C-2.62654297 9.86892578 -2.62654297 9.86892578 -3.45703125 11.07421875 C-5 13 -5 13 -7 14 C-5.23570801 9.02790438 -2.6060834 4.56561939 0 0 Z " fill="#828690" transform="translate(841,786)"/>
<path d="M0 0 C2 2 2 2 4 5 C3.01 5.33 2.02 5.66 1 6 C-0.20882096 8.00016466 -0.20882096 8.00016466 -1 10 C-1.66 10 -2.32 10 -3 10 C-2.39009109 6.44219804 -1.4216319 3.3171411 0 0 Z " fill="#868A93" transform="translate(849,768)"/>
<path d="M0 0 C0.66 0.99 1.32 1.98 2 3 C1.01 4.485 1.01 4.485 0 6 C-3.125 6.1875 -3.125 6.1875 -6 6 C-5.8125 4.125 -5.8125 4.125 -5 2 C-2.4375 0.75 -2.4375 0.75 0 0 Z " fill="#1A1C1D" transform="translate(459,251)"/>
<path d="M0 0 C1.77706209 2.66559313 2.87548273 5.0280615 4 8 C2.68 9.32 1.36 10.64 0 12 C0 8.04 0 4.08 0 0 Z " fill="#151318" transform="translate(173,499)"/>
<path d="M0 0 C-1.23639519 3.70918556 -2.86462482 4.26232251 -6.2109375 6.03515625 C-8.24703385 7.0973242 -8.24703385 7.0973242 -11 9 C-11 8.01 -11 7.02 -11 6 C-9.1015625 4.39453125 -9.1015625 4.39453125 -6.625 2.8125 C-5.81289062 2.28269531 -5.00078125 1.75289062 -4.1640625 1.20703125 C-2 0 -2 0 0 0 Z " fill="#353638" transform="translate(249,218)"/>
<path d="M0 0 C0.66 0.33 1.32 0.66 2 1 C0.68 3.31 -0.64 5.62 -2 8 C-2.33 7.34 -2.66 6.68 -3 6 C-4.32 5.67 -5.64 5.34 -7 5 C-4.69 3.35 -2.38 1.7 0 0 Z " fill="#828890" transform="translate(799,835)"/>
<path d="M0 0 C0.33 1.32 0.66 2.64 1 4 C1.66 4 2.32 4 3 4 C2.44855089 8.08072342 2.08669204 8.91330796 -1 12 C-0.67 8.04 -0.34 4.08 0 0 Z " fill="#898D95" transform="translate(858,725)"/>
<path d="M0 0 C0 3.74016583 -0.9341591 4.45276193 -3.375 7.1875 C-4.00148437 7.90292969 -4.62796875 8.61835938 -5.2734375 9.35546875 C-7 11 -7 11 -9 11 C-7.59155282 7.78475695 -5.89655214 5.67816132 -3.375 3.25 C-2.74335938 2.63640625 -2.11171875 2.0228125 -1.4609375 1.390625 C-0.73777344 0.70226562 -0.73777344 0.70226562 0 0 Z " fill="#F2F3F5" transform="translate(215,241)"/>
<path d="M0 0 C-1 3 -1 3 -3.1796875 4.203125 C-4.06914062 4.54859375 -4.95859375 4.8940625 -5.875 5.25 C-6.75929688 5.60578125 -7.64359375 5.9615625 -8.5546875 6.328125 C-11 7 -11 7 -14 6 C-12.04414675 4.99515796 -10.08523763 3.99626195 -8.125 3 C-6.48917969 2.1646875 -6.48917969 2.1646875 -4.8203125 1.3125 C-2 0 -2 0 0 0 Z " fill="#343637" transform="translate(263,211)"/>
<path d="M0 0 C0.99 1.32 1.98 2.64 3 4 C2.1875 7.75 2.1875 7.75 1 11 C0.67 11 0.34 11 0 11 C0 7.37 0 3.74 0 0 Z " fill="#9C9EA6" transform="translate(859,673)"/>
<path d="M0 0 C0.33 0 0.66 0 1 0 C1 3.96 1 7.92 1 12 C0.67 12 0.34 12 0 12 C-0.33 10.35 -0.66 8.7 -1 7 C-1.33 7 -1.66 7 -2 7 C-2.125 4.625 -2.125 4.625 -2 2 C-1.34 1.34 -0.68 0.68 0 0 Z " fill="#091012" transform="translate(455,299)"/>
<path d="M0 0 C1.98 0.99 1.98 0.99 4 2 C3.67 2.66 3.34 3.32 3 4 C3.66 4 4.32 4 5 4 C5 4.66 5 5.32 5 6 C3.68 6.33 2.36 6.66 1 7 C0.67 4.69 0.34 2.38 0 0 Z " fill="#898D96" transform="translate(672,571)"/>
<path d="M0 0 C0.33 0.99 0.66 1.98 1 3 C-0.14453125 4.82421875 -0.14453125 4.82421875 -1.8125 6.6875 C-2.35519531 7.31011719 -2.89789063 7.93273437 -3.45703125 8.57421875 C-5 10 -5 10 -7 10 C-5.33248852 6.05860922 -2.77289351 3.2107188 0 0 Z " fill="#3D3D3D" transform="translate(212,246)"/>
<path d="M0 0 C1.98 0 3.96 0 6 0 C5.6875 1.9375 5.6875 1.9375 5 4 C4.01 4.33 3.02 4.66 2 5 C1.34 3.35 0.68 1.7 0 0 Z " fill="#171B1C" transform="translate(461,246)"/>
<path d="M0 0 C0.99 0 1.98 0 3 0 C2.38722388 2.96175123 1.74627478 4.38058783 0 7 C-0.66 6.67 -1.32 6.34 -2 6 C-1.34 4.02 -0.68 2.04 0 0 Z " fill="#BDC3C8" transform="translate(610,701)"/>
<path d="M0 0 C0.66 0.33 1.32 0.66 2 1 C1.04882866 2.1725131 0.08882991 3.33787015 -0.875 4.5 C-1.40867187 5.1496875 -1.94234375 5.799375 -2.4921875 6.46875 C-2.98976563 6.9740625 -3.48734375 7.479375 -4 8 C-4.66 8 -5.32 8 -6 8 C-4.55746343 4.63408134 -2.66735273 2.48952921 0 0 Z " fill="#DEEEF3" transform="translate(627,671)"/>
<path d="M0 0 C1.88343932 3.76687864 2.22057835 5.02958963 2 9 C1.01 9 0.02 9 -1 9 C-0.67 6.03 -0.34 3.06 0 0 Z " fill="#7E828B" transform="translate(855,745)"/>
<path d="M0 0 C0.33 0 0.66 0 1 0 C1 2.64 1 5.28 1 8 C0.01 8 -0.98 8 -2 8 C-2.33 7.01 -2.66 6.02 -3 5 C-2.34 5 -1.68 5 -1 5 C-0.67 3.35 -0.34 1.7 0 0 Z " fill="#A7B0B7" transform="translate(618,724)"/>
</svg>
